<svg width="24" height="24" viewBox="0 0 24 24" fill="none" xmlns="http://www.w3.org/2000/svg">
<path d="M12.0001 7.19289C9.33995 7.19289 7.19308 9.33977 7.19308 11.9999C7.19308 14.6601 9.33995 16.807 12.0001 16.807C14.6603 16.807 16.8071 14.6601 16.8071 11.9999C16.8071 9.33977 14.6603 7.19289 12.0001 7.19289ZM12.0001 15.1241C10.2798 15.1241 8.87589 13.7202 8.87589 11.9999C8.87589 10.2796 10.2798 8.8757 12.0001 8.8757C13.7204 8.8757 15.1243 10.2796 15.1243 11.9999C15.1243 13.7202 13.7204 15.1241 12.0001 15.1241ZM17.004 5.8757C16.3829 5.8757 15.8814 6.37727 15.8814 6.99836C15.8814 7.61945 16.3829 8.12102 17.004 8.12102C17.6251 8.12102 18.1267 7.6218 18.1267 6.99836C18.1269 6.85088 18.0979 6.70481 18.0416 6.56852C17.9852 6.43223 17.9026 6.30839 17.7983 6.20411C17.694 6.09982 17.5701 6.01714 17.4339 5.96078C17.2976 5.90443 17.1515 5.87552 17.004 5.8757ZM21.3704 11.9999C21.3704 10.7062 21.3821 9.42414 21.3095 8.13273C21.2368 6.63273 20.8946 5.30148 19.7978 4.20461C18.6985 3.10539 17.3696 2.76555 15.8696 2.69289C14.5759 2.62023 13.2939 2.63195 12.0025 2.63195C10.7087 2.63195 9.42667 2.62023 8.13527 2.69289C6.63527 2.76555 5.30402 3.10773 4.20714 4.20461C3.10792 5.30383 2.76808 6.63273 2.69542 8.13273C2.62277 9.42648 2.63449 10.7085 2.63449 11.9999C2.63449 13.2913 2.62277 14.5757 2.69542 15.8671C2.76808 17.3671 3.11027 18.6984 4.20714 19.7952C5.30636 20.8945 6.63527 21.2343 8.13527 21.307C9.42902 21.3796 10.711 21.3679 12.0025 21.3679C13.2962 21.3679 14.5782 21.3796 15.8696 21.307C17.3696 21.2343 18.7009 20.8921 19.7978 19.7952C20.897 18.696 21.2368 17.3671 21.3095 15.8671C21.3845 14.5757 21.3704 13.2937 21.3704 11.9999ZM19.3079 17.5265C19.1368 17.953 18.9306 18.2718 18.6001 18.5999C18.2696 18.9304 17.9532 19.1366 17.5267 19.3077C16.2939 19.7976 13.3665 19.6874 12.0001 19.6874C10.6337 19.6874 7.70402 19.7976 6.4712 19.3101C6.04464 19.139 5.72589 18.9327 5.39777 18.6023C5.0673 18.2718 4.86105 17.9554 4.68995 17.5288C4.20246 16.2937 4.31261 13.3663 4.31261 11.9999C4.31261 10.6335 4.20246 7.70383 4.68995 6.47102C4.86105 6.04445 5.0673 5.7257 5.39777 5.39758C5.72824 5.06945 6.04464 4.86086 6.4712 4.68977C7.70402 4.20227 10.6337 4.31242 12.0001 4.31242C13.3665 4.31242 16.2962 4.20227 17.529 4.68977C17.9556 4.86086 18.2743 5.06711 18.6025 5.39758C18.9329 5.72805 19.1392 6.04445 19.3103 6.47102C19.7978 7.70383 19.6876 10.6335 19.6876 11.9999C19.6876 13.3663 19.7978 16.2937 19.3079 17.5265Z" fill="#231F20"/>
</svg>
