<svg width="24" height="24" viewBox="0 0 24 24" fill="none" xmlns="http://www.w3.org/2000/svg">
<path fill-rule="evenodd" clip-rule="evenodd" d="M4.32766 3H19.6684C20.4023 3 21 3.58104 21 4.29786V19.7012C21 20.4179 20.4023 21 19.6684 21H4.32766C3.59521 21 3 20.4179 3 19.7012V4.29786C3 3.58104 3.59521 3 4.32766 3ZM6.91478 5.4C7.75 5.4 8.42809 6.07958 8.42809 6.9168C8.42809 7.75429 7.75 8.43387 6.91478 8.43387C6.07623 8.43387 5.4 7.75429 5.4 6.9168C5.4 6.07958 6.07623 5.4 6.91478 5.4ZM5.60737 18H8.22096V9.58375H5.60737V18ZM9.85894 9.58374H12.3618V10.7343H12.3975C12.7457 10.0727 13.5976 9.37488 14.8679 9.37488C17.5116 9.37488 18.0001 11.1175 18.0001 13.3842V18H15.3894V13.9072C15.3894 12.9312 15.3726 11.6756 14.0327 11.6756C12.6741 11.6756 12.4668 12.7394 12.4668 13.8373V18H9.85894V9.58374Z" fill="#231F20"/>
</svg>
