<svg width="37" height="37" viewBox="0 0 37 37" fill="none" xmlns="http://www.w3.org/2000/svg">
<path d="M18.5188 0.102783C8.35521 0.102783 0.116211 8.34259 0.116211 18.5054C0.116211 28.6681 8.35602 36.9079 18.5188 36.9079C28.6816 36.9079 36.9214 28.6681 36.9214 18.5054C36.9214 8.34259 28.6832 0.102783 18.5188 0.102783ZM28.2551 16.3351C28.0687 16.3538 27.8822 16.3627 27.6958 16.3635C26.687 16.3639 25.6941 16.1129 24.8067 15.6334C23.9193 15.1539 23.1652 14.4609 22.6128 13.6169V22.9706C22.6128 24.8041 21.8845 26.5624 20.5881 27.8589C19.2917 29.1554 17.5335 29.8839 15.7 29.8841C13.8665 29.8841 12.108 29.1557 10.8114 27.8592C9.51489 26.5627 8.7865 24.8042 8.7865 22.9706C8.7865 21.1376 9.51444 19.3796 10.8103 18.0832C12.1061 16.7867 13.8638 16.0579 15.6968 16.0571C15.8411 16.0571 15.9822 16.0701 16.124 16.079V19.4839C15.9826 19.4609 15.8399 19.4466 15.6968 19.4409C15.2334 19.4408 14.7745 19.532 14.3464 19.7092C13.9183 19.8865 13.5292 20.1463 13.2015 20.474C12.8738 20.8016 12.6139 21.1906 12.4365 21.6187C12.2592 22.0468 12.1679 22.5056 12.1679 22.969C12.1679 23.4324 12.2592 23.8912 12.4365 24.3193C12.6139 24.7474 12.8738 25.1364 13.2015 25.464C13.5292 25.7916 13.9183 26.0515 14.3464 26.2288C14.7745 26.406 15.2334 26.4972 15.6968 26.4971C17.6424 26.4971 19.3668 24.9617 19.3668 23.0111L19.4008 7.12575H22.6598C22.8086 8.54164 23.4504 9.86016 24.4729 10.8508C25.4954 11.8415 26.8336 12.4412 28.2535 12.5452L28.2551 16.3351Z" fill="black"/>
</svg>
