<svg width="24" height="24" viewBox="0 0 24 24" fill="none" xmlns="http://www.w3.org/2000/svg">
<path d="M21.7499 5.96023C21.0327 6.2696 20.2522 6.49226 19.4483 6.57898C20.283 6.08312 20.908 5.29976 21.2062 4.37585C20.4229 4.84176 19.5649 5.16847 18.6702 5.34148C18.2963 4.94169 17.844 4.62321 17.3415 4.40587C16.8391 4.18853 16.2973 4.07699 15.7499 4.0782C13.5351 4.0782 11.7538 5.87351 11.7538 8.07663C11.7538 8.38601 11.7913 8.69538 11.8522 8.99304C8.53584 8.8196 5.57803 7.23523 3.61162 4.80945C3.25332 5.42143 3.06556 6.11826 3.06787 6.82741C3.06787 8.21491 3.77334 9.43835 4.84912 10.1579C4.21515 10.1329 3.59602 9.95866 3.04209 9.64929V9.69851C3.04209 11.6415 4.41553 13.2516 6.246 13.6219C5.90231 13.7112 5.54875 13.7569 5.19365 13.7579C4.9335 13.7579 4.6874 13.7321 4.43896 13.6969C4.94521 15.2813 6.41943 16.4321 8.1749 16.4696C6.80146 17.5454 5.08115 18.1782 3.21318 18.1782C2.87803 18.1782 2.56865 18.1665 2.24756 18.129C4.01943 19.2657 6.12178 19.9219 8.38584 19.9219C15.7358 19.9219 19.7577 13.8329 19.7577 8.54773C19.7577 8.37429 19.7577 8.20085 19.746 8.02741C20.5241 7.45788 21.2062 6.75241 21.7499 5.96023Z" fill="#231F20"/>
</svg>
